<mxfile host="app.diagrams.net" modified="2021-04-27T09:56:58.145Z" agent="5.0 (Windows NT 10.0; Win64; x64) AppleWebKit/537.36 (KHTML, like Gecko) Chrome/90.0.4430.85 Safari/537.36 Edg/90.0.818.46" etag="4GpHqRkHomHPkupBZIBQ" version="14.6.6" type="github" pages="2">
  <diagram id="AGaxUFNheNXVuwawrtIq" name="Page-1">
    <mxGraphModel dx="781" dy="477" grid="1" gridSize="10" guides="1" tooltips="1" connect="1" arrows="1" fold="1" page="1" pageScale="1" pageWidth="827" pageHeight="1169" math="0" shadow="0">
      <root>
        <mxCell id="0" />
        <mxCell id="1" parent="0" />
        <mxCell id="nlzdaKM3ThffbXgHZmzB-17" style="edgeStyle=none;rounded=0;orthogonalLoop=1;jettySize=auto;html=1;entryX=0.5;entryY=1;entryDx=0;entryDy=0;endArrow=none;endFill=0;strokeColor=#000000;" parent="1" source="nlzdaKM3ThffbXgHZmzB-12" target="nlzdaKM3ThffbXgHZmzB-16" edge="1">
          <mxGeometry relative="1" as="geometry" />
        </mxCell>
        <mxCell id="nlzdaKM3ThffbXgHZmzB-19" style="edgeStyle=none;rounded=0;orthogonalLoop=1;jettySize=auto;html=1;exitX=0;exitY=0;exitDx=0;exitDy=0;entryX=1;entryY=1;entryDx=0;entryDy=0;endArrow=none;endFill=0;strokeColor=#000000;" parent="1" source="nlzdaKM3ThffbXgHZmzB-12" target="nlzdaKM3ThffbXgHZmzB-18" edge="1">
          <mxGeometry relative="1" as="geometry" />
        </mxCell>
        <mxCell id="nlzdaKM3ThffbXgHZmzB-23" value="M" style="edgeStyle=none;rounded=0;orthogonalLoop=1;jettySize=auto;html=1;exitX=1;exitY=0.5;exitDx=0;exitDy=0;entryX=0;entryY=0.5;entryDx=0;entryDy=0;endArrow=none;endFill=0;strokeColor=#000000;" parent="1" source="nlzdaKM3ThffbXgHZmzB-12" target="nlzdaKM3ThffbXgHZmzB-22" edge="1">
          <mxGeometry y="10" relative="1" as="geometry">
            <mxPoint as="offset" />
          </mxGeometry>
        </mxCell>
        <mxCell id="nlzdaKM3ThffbXgHZmzB-45" value="1" style="edgeStyle=none;rounded=0;orthogonalLoop=1;jettySize=auto;html=1;exitX=1;exitY=1;exitDx=0;exitDy=0;entryX=0;entryY=0.5;entryDx=0;entryDy=0;endArrow=none;endFill=0;strokeColor=#000000;shape=link;" parent="1" source="nlzdaKM3ThffbXgHZmzB-12" target="nlzdaKM3ThffbXgHZmzB-44" edge="1">
          <mxGeometry x="-0.0028" y="11" relative="1" as="geometry">
            <mxPoint as="offset" />
          </mxGeometry>
        </mxCell>
        <mxCell id="nlzdaKM3ThffbXgHZmzB-12" value="Customer" style="whiteSpace=wrap;html=1;align=center;fillColor=#fff2cc;strokeColor=#d6b656;" parent="1" vertex="1">
          <mxGeometry x="170" y="190" width="100" height="40" as="geometry" />
        </mxCell>
        <mxCell id="nlzdaKM3ThffbXgHZmzB-14" style="edgeStyle=none;rounded=0;orthogonalLoop=1;jettySize=auto;html=1;entryX=0;entryY=0.5;entryDx=0;entryDy=0;endArrow=none;endFill=0;strokeColor=#000000;" parent="1" source="nlzdaKM3ThffbXgHZmzB-13" target="nlzdaKM3ThffbXgHZmzB-12" edge="1">
          <mxGeometry relative="1" as="geometry" />
        </mxCell>
        <mxCell id="nlzdaKM3ThffbXgHZmzB-13" value="Address" style="ellipse;whiteSpace=wrap;html=1;align=center;fillColor=#fad7ac;strokeColor=#b46504;" parent="1" vertex="1">
          <mxGeometry x="20" y="190" width="100" height="40" as="geometry" />
        </mxCell>
        <mxCell id="nlzdaKM3ThffbXgHZmzB-16" value="ID" style="ellipse;whiteSpace=wrap;html=1;align=center;fontStyle=4;fillColor=#fad7ac;strokeColor=#b46504;" parent="1" vertex="1">
          <mxGeometry x="170" y="100" width="100" height="40" as="geometry" />
        </mxCell>
        <mxCell id="nlzdaKM3ThffbXgHZmzB-18" value="Name" style="ellipse;whiteSpace=wrap;html=1;align=center;fillColor=#fad7ac;strokeColor=#b46504;" parent="1" vertex="1">
          <mxGeometry x="40" y="120" width="100" height="40" as="geometry" />
        </mxCell>
        <mxCell id="nlzdaKM3ThffbXgHZmzB-21" style="edgeStyle=none;rounded=0;orthogonalLoop=1;jettySize=auto;html=1;exitX=1;exitY=0;exitDx=0;exitDy=0;entryX=0;entryY=1;entryDx=0;entryDy=0;endArrow=none;endFill=0;strokeColor=#000000;" parent="1" source="nlzdaKM3ThffbXgHZmzB-20" target="nlzdaKM3ThffbXgHZmzB-12" edge="1">
          <mxGeometry relative="1" as="geometry" />
        </mxCell>
        <mxCell id="nlzdaKM3ThffbXgHZmzB-20" value="Contact" style="ellipse;shape=doubleEllipse;margin=3;whiteSpace=wrap;html=1;align=center;fillColor=#fad7ac;strokeColor=#b46504;" parent="1" vertex="1">
          <mxGeometry x="40" y="270" width="100" height="40" as="geometry" />
        </mxCell>
        <mxCell id="nlzdaKM3ThffbXgHZmzB-22" value="Buy" style="shape=rhombus;perimeter=rhombusPerimeter;whiteSpace=wrap;html=1;align=center;fillColor=#f5f5f5;strokeColor=#666666;fontColor=#333333;" parent="1" vertex="1">
          <mxGeometry x="350" y="180" width="120" height="60" as="geometry" />
        </mxCell>
        <mxCell id="nlzdaKM3ThffbXgHZmzB-35" style="edgeStyle=none;rounded=0;orthogonalLoop=1;jettySize=auto;html=1;exitX=0.5;exitY=0;exitDx=0;exitDy=0;endArrow=none;endFill=0;strokeColor=#000000;" parent="1" source="nlzdaKM3ThffbXgHZmzB-24" target="nlzdaKM3ThffbXgHZmzB-33" edge="1">
          <mxGeometry relative="1" as="geometry" />
        </mxCell>
        <mxCell id="nlzdaKM3ThffbXgHZmzB-36" style="edgeStyle=none;rounded=0;orthogonalLoop=1;jettySize=auto;html=1;exitX=1;exitY=0;exitDx=0;exitDy=0;entryX=0;entryY=1;entryDx=0;entryDy=0;endArrow=none;endFill=0;strokeColor=#000000;" parent="1" source="nlzdaKM3ThffbXgHZmzB-24" target="nlzdaKM3ThffbXgHZmzB-34" edge="1">
          <mxGeometry relative="1" as="geometry" />
        </mxCell>
        <mxCell id="nlzdaKM3ThffbXgHZmzB-39" style="edgeStyle=none;rounded=0;orthogonalLoop=1;jettySize=auto;html=1;exitX=0;exitY=0;exitDx=0;exitDy=0;entryX=1;entryY=1;entryDx=0;entryDy=0;endArrow=none;endFill=0;strokeColor=#000000;" parent="1" source="nlzdaKM3ThffbXgHZmzB-24" target="nlzdaKM3ThffbXgHZmzB-38" edge="1">
          <mxGeometry relative="1" as="geometry" />
        </mxCell>
        <mxCell id="nlzdaKM3ThffbXgHZmzB-40" value="N" style="edgeStyle=none;rounded=0;orthogonalLoop=1;jettySize=auto;html=1;exitX=0;exitY=0.5;exitDx=0;exitDy=0;entryX=1;entryY=0.5;entryDx=0;entryDy=0;endArrow=none;endFill=0;strokeColor=#000000;" parent="1" source="nlzdaKM3ThffbXgHZmzB-24" target="nlzdaKM3ThffbXgHZmzB-22" edge="1">
          <mxGeometry x="-0.0526" y="-10" relative="1" as="geometry">
            <mxPoint as="offset" />
          </mxGeometry>
        </mxCell>
        <mxCell id="nlzdaKM3ThffbXgHZmzB-24" value="Product" style="whiteSpace=wrap;html=1;align=center;fillColor=#fff2cc;strokeColor=#d6b656;" parent="1" vertex="1">
          <mxGeometry x="546" y="190" width="100" height="40" as="geometry" />
        </mxCell>
        <mxCell id="nlzdaKM3ThffbXgHZmzB-30" value="N" style="edgeStyle=none;rounded=0;orthogonalLoop=1;jettySize=auto;html=1;exitX=0;exitY=0.5;exitDx=0;exitDy=0;entryX=1;entryY=0.5;entryDx=0;entryDy=0;endArrow=none;endFill=0;strokeColor=#000000;" parent="1" source="nlzdaKM3ThffbXgHZmzB-26" target="nlzdaKM3ThffbXgHZmzB-24" edge="1">
          <mxGeometry x="-0.0476" y="-10" relative="1" as="geometry">
            <mxPoint as="offset" />
          </mxGeometry>
        </mxCell>
        <mxCell id="nlzdaKM3ThffbXgHZmzB-31" value="1" style="edgeStyle=none;rounded=0;orthogonalLoop=1;jettySize=auto;html=1;exitX=1;exitY=0.5;exitDx=0;exitDy=0;entryX=0;entryY=0.5;entryDx=0;entryDy=0;endArrow=none;endFill=0;strokeColor=#000000;shape=link;" parent="1" source="nlzdaKM3ThffbXgHZmzB-26" target="nlzdaKM3ThffbXgHZmzB-28" edge="1">
          <mxGeometry x="-0.1429" y="10" relative="1" as="geometry">
            <mxPoint as="offset" />
          </mxGeometry>
        </mxCell>
        <mxCell id="nlzdaKM3ThffbXgHZmzB-26" value="Sell" style="shape=rhombus;perimeter=rhombusPerimeter;whiteSpace=wrap;html=1;align=center;fillColor=#f5f5f5;strokeColor=#666666;fontColor=#333333;" parent="1" vertex="1">
          <mxGeometry x="730" y="180" width="120" height="60" as="geometry" />
        </mxCell>
        <mxCell id="SDFmYHYrPIGqWPgCLny9-5" style="rounded=0;orthogonalLoop=1;jettySize=auto;html=1;exitX=1;exitY=0;exitDx=0;exitDy=0;entryX=0;entryY=1;entryDx=0;entryDy=0;endArrow=none;endFill=0;" edge="1" parent="1" source="nlzdaKM3ThffbXgHZmzB-28" target="SDFmYHYrPIGqWPgCLny9-2">
          <mxGeometry relative="1" as="geometry" />
        </mxCell>
        <mxCell id="nlzdaKM3ThffbXgHZmzB-28" value="Company" style="whiteSpace=wrap;html=1;align=center;fillColor=#fff2cc;strokeColor=#d6b656;" parent="1" vertex="1">
          <mxGeometry x="920" y="190" width="100" height="40" as="geometry" />
        </mxCell>
        <mxCell id="nlzdaKM3ThffbXgHZmzB-33" value="Name" style="ellipse;whiteSpace=wrap;html=1;align=center;fillColor=#fad7ac;strokeColor=#b46504;" parent="1" vertex="1">
          <mxGeometry x="546" y="80" width="100" height="40" as="geometry" />
        </mxCell>
        <mxCell id="nlzdaKM3ThffbXgHZmzB-34" value="Type" style="ellipse;whiteSpace=wrap;html=1;align=center;fillColor=#fad7ac;strokeColor=#b46504;" parent="1" vertex="1">
          <mxGeometry x="666" y="110" width="100" height="40" as="geometry" />
        </mxCell>
        <mxCell id="nlzdaKM3ThffbXgHZmzB-38" value="ID" style="ellipse;whiteSpace=wrap;html=1;align=center;fontStyle=4;fillColor=#fad7ac;strokeColor=#b46504;" parent="1" vertex="1">
          <mxGeometry x="420" y="110" width="100" height="40" as="geometry" />
        </mxCell>
        <mxCell id="nlzdaKM3ThffbXgHZmzB-47" value="N" style="edgeStyle=none;rounded=0;orthogonalLoop=1;jettySize=auto;html=1;exitX=1;exitY=0.5;exitDx=0;exitDy=0;entryX=0;entryY=0.5;entryDx=0;entryDy=0;endArrow=none;endFill=0;strokeColor=#000000;" parent="1" source="nlzdaKM3ThffbXgHZmzB-41" target="nlzdaKM3ThffbXgHZmzB-42" edge="1">
          <mxGeometry x="0.0476" y="10" relative="1" as="geometry">
            <mxPoint as="offset" />
          </mxGeometry>
        </mxCell>
        <mxCell id="SDFmYHYrPIGqWPgCLny9-10" value="N" style="edgeStyle=none;rounded=0;orthogonalLoop=1;jettySize=auto;html=1;exitX=0.5;exitY=1;exitDx=0;exitDy=0;entryX=0.5;entryY=0;entryDx=0;entryDy=0;endArrow=none;endFill=0;" edge="1" parent="1" source="nlzdaKM3ThffbXgHZmzB-41" target="SDFmYHYrPIGqWPgCLny9-9">
          <mxGeometry y="14" relative="1" as="geometry">
            <mxPoint as="offset" />
          </mxGeometry>
        </mxCell>
        <mxCell id="nlzdaKM3ThffbXgHZmzB-41" value="Invoice" style="whiteSpace=wrap;html=1;align=center;fillColor=#fff2cc;strokeColor=#d6b656;" parent="1" vertex="1">
          <mxGeometry x="546" y="450" width="100" height="40" as="geometry" />
        </mxCell>
        <mxCell id="nlzdaKM3ThffbXgHZmzB-48" value="1" style="edgeStyle=none;rounded=0;orthogonalLoop=1;jettySize=auto;html=1;exitX=1;exitY=0.5;exitDx=0;exitDy=0;entryX=0;entryY=1;entryDx=0;entryDy=0;endArrow=none;endFill=0;strokeColor=#000000;shape=link;" parent="1" source="nlzdaKM3ThffbXgHZmzB-42" target="nlzdaKM3ThffbXgHZmzB-28" edge="1">
          <mxGeometry x="0.1302" y="10" relative="1" as="geometry">
            <mxPoint as="offset" />
          </mxGeometry>
        </mxCell>
        <mxCell id="nlzdaKM3ThffbXgHZmzB-42" value="Send" style="shape=rhombus;perimeter=rhombusPerimeter;whiteSpace=wrap;html=1;align=center;fillColor=#f5f5f5;strokeColor=#666666;fontColor=#333333;" parent="1" vertex="1">
          <mxGeometry x="730" y="440" width="120" height="60" as="geometry" />
        </mxCell>
        <mxCell id="nlzdaKM3ThffbXgHZmzB-46" value="N" style="edgeStyle=none;rounded=0;orthogonalLoop=1;jettySize=auto;html=1;exitX=1;exitY=0.5;exitDx=0;exitDy=0;entryX=0;entryY=0.5;entryDx=0;entryDy=0;endArrow=none;endFill=0;strokeColor=#000000;" parent="1" source="nlzdaKM3ThffbXgHZmzB-44" target="nlzdaKM3ThffbXgHZmzB-41" edge="1">
          <mxGeometry x="0.0526" y="10" relative="1" as="geometry">
            <mxPoint as="offset" />
          </mxGeometry>
        </mxCell>
        <mxCell id="nlzdaKM3ThffbXgHZmzB-44" value="Receive" style="shape=rhombus;perimeter=rhombusPerimeter;whiteSpace=wrap;html=1;align=center;fillColor=#f5f5f5;strokeColor=#666666;fontColor=#333333;" parent="1" vertex="1">
          <mxGeometry x="350" y="440" width="120" height="60" as="geometry" />
        </mxCell>
        <mxCell id="SDFmYHYrPIGqWPgCLny9-3" style="edgeStyle=orthogonalEdgeStyle;rounded=0;orthogonalLoop=1;jettySize=auto;html=1;exitX=0.5;exitY=1;exitDx=0;exitDy=0;entryX=0.5;entryY=0;entryDx=0;entryDy=0;endArrow=none;endFill=0;" edge="1" parent="1" source="SDFmYHYrPIGqWPgCLny9-1" target="nlzdaKM3ThffbXgHZmzB-28">
          <mxGeometry relative="1" as="geometry" />
        </mxCell>
        <mxCell id="SDFmYHYrPIGqWPgCLny9-1" value="Name" style="ellipse;whiteSpace=wrap;html=1;align=center;fontStyle=4;fillColor=#fad7ac;strokeColor=#b46504;" vertex="1" parent="1">
          <mxGeometry x="920" y="100" width="100" height="40" as="geometry" />
        </mxCell>
        <mxCell id="SDFmYHYrPIGqWPgCLny9-2" value="TIN" style="ellipse;whiteSpace=wrap;html=1;align=center;fontStyle=4;fillColor=#fad7ac;strokeColor=#b46504;" vertex="1" parent="1">
          <mxGeometry x="1050" y="130" width="100" height="40" as="geometry" />
        </mxCell>
        <mxCell id="SDFmYHYrPIGqWPgCLny9-9" value="Store" style="shape=rhombus;perimeter=rhombusPerimeter;whiteSpace=wrap;html=1;align=center;fillColor=#f5f5f5;strokeColor=#666666;fontColor=#333333;" vertex="1" parent="1">
          <mxGeometry x="536" y="570" width="120" height="60" as="geometry" />
        </mxCell>
        <mxCell id="SDFmYHYrPIGqWPgCLny9-23" style="edgeStyle=none;rounded=0;orthogonalLoop=1;jettySize=auto;html=1;exitX=1;exitY=0;exitDx=0;exitDy=0;entryX=0;entryY=1;entryDx=0;entryDy=0;endArrow=none;endFill=0;" edge="1" parent="1" source="SDFmYHYrPIGqWPgCLny9-14" target="SDFmYHYrPIGqWPgCLny9-20">
          <mxGeometry relative="1" as="geometry" />
        </mxCell>
        <mxCell id="SDFmYHYrPIGqWPgCLny9-14" value="ID" style="ellipse;whiteSpace=wrap;html=1;align=center;fontStyle=4;" vertex="1" parent="1">
          <mxGeometry x="410" y="790" width="100" height="40" as="geometry" />
        </mxCell>
        <mxCell id="SDFmYHYrPIGqWPgCLny9-24" style="edgeStyle=none;rounded=0;orthogonalLoop=1;jettySize=auto;html=1;exitX=0.5;exitY=0;exitDx=0;exitDy=0;entryX=0.5;entryY=1;entryDx=0;entryDy=0;endArrow=none;endFill=0;" edge="1" parent="1" source="SDFmYHYrPIGqWPgCLny9-15" target="SDFmYHYrPIGqWPgCLny9-20">
          <mxGeometry relative="1" as="geometry" />
        </mxCell>
        <mxCell id="SDFmYHYrPIGqWPgCLny9-15" value="Name" style="ellipse;whiteSpace=wrap;html=1;align=center;" vertex="1" parent="1">
          <mxGeometry x="546" y="790" width="100" height="40" as="geometry" />
        </mxCell>
        <mxCell id="SDFmYHYrPIGqWPgCLny9-22" value="1" style="edgeStyle=none;rounded=0;orthogonalLoop=1;jettySize=auto;html=1;exitX=0.5;exitY=0;exitDx=0;exitDy=0;entryX=0.5;entryY=1;entryDx=0;entryDy=0;endArrow=none;endFill=0;shape=link;" edge="1" parent="1" source="SDFmYHYrPIGqWPgCLny9-20" target="SDFmYHYrPIGqWPgCLny9-9">
          <mxGeometry y="-14" relative="1" as="geometry">
            <Array as="points" />
            <mxPoint as="offset" />
          </mxGeometry>
        </mxCell>
        <mxCell id="SDFmYHYrPIGqWPgCLny9-20" value="Journal" style="whiteSpace=wrap;html=1;align=center;fillColor=#fff2cc;strokeColor=#d6b656;" vertex="1" parent="1">
          <mxGeometry x="546" y="710" width="100" height="40" as="geometry" />
        </mxCell>
        <mxCell id="SDFmYHYrPIGqWPgCLny9-26" style="edgeStyle=none;rounded=0;orthogonalLoop=1;jettySize=auto;html=1;exitX=0;exitY=0;exitDx=0;exitDy=0;entryX=1;entryY=1;entryDx=0;entryDy=0;endArrow=none;endFill=0;" edge="1" parent="1" source="SDFmYHYrPIGqWPgCLny9-25" target="SDFmYHYrPIGqWPgCLny9-20">
          <mxGeometry relative="1" as="geometry" />
        </mxCell>
        <mxCell id="SDFmYHYrPIGqWPgCLny9-25" value="Type" style="ellipse;whiteSpace=wrap;html=1;align=center;" vertex="1" parent="1">
          <mxGeometry x="690" y="790" width="100" height="40" as="geometry" />
        </mxCell>
        <mxCell id="SDFmYHYrPIGqWPgCLny9-33" style="edgeStyle=none;rounded=0;orthogonalLoop=1;jettySize=auto;html=1;exitX=1;exitY=0;exitDx=0;exitDy=0;entryX=0;entryY=1;entryDx=0;entryDy=0;endArrow=none;endFill=0;" edge="1" parent="1" source="SDFmYHYrPIGqWPgCLny9-30" target="nlzdaKM3ThffbXgHZmzB-41">
          <mxGeometry relative="1" as="geometry" />
        </mxCell>
        <mxCell id="SDFmYHYrPIGqWPgCLny9-30" value="ID" style="ellipse;whiteSpace=wrap;html=1;align=center;fontStyle=4;fillColor=#fad7ac;strokeColor=#b46504;" vertex="1" parent="1">
          <mxGeometry x="436" y="510" width="100" height="40" as="geometry" />
        </mxCell>
        <mxCell id="SDFmYHYrPIGqWPgCLny9-35" style="edgeStyle=none;rounded=0;orthogonalLoop=1;jettySize=auto;html=1;exitX=0;exitY=1;exitDx=0;exitDy=0;entryX=1;entryY=0;entryDx=0;entryDy=0;endArrow=none;endFill=0;" edge="1" parent="1" source="SDFmYHYrPIGqWPgCLny9-31" target="nlzdaKM3ThffbXgHZmzB-41">
          <mxGeometry relative="1" as="geometry" />
        </mxCell>
        <mxCell id="SDFmYHYrPIGqWPgCLny9-31" value="Date" style="ellipse;whiteSpace=wrap;html=1;align=center;fillColor=#fad7ac;strokeColor=#b46504;" vertex="1" parent="1">
          <mxGeometry x="666" y="380" width="100" height="40" as="geometry" />
        </mxCell>
        <mxCell id="SDFmYHYrPIGqWPgCLny9-34" style="edgeStyle=none;rounded=0;orthogonalLoop=1;jettySize=auto;html=1;exitX=0.5;exitY=1;exitDx=0;exitDy=0;entryX=0.75;entryY=1;entryDx=0;entryDy=0;endArrow=none;endFill=0;" edge="1" parent="1" source="SDFmYHYrPIGqWPgCLny9-32" target="nlzdaKM3ThffbXgHZmzB-41">
          <mxGeometry relative="1" as="geometry" />
        </mxCell>
        <mxCell id="SDFmYHYrPIGqWPgCLny9-32" value="Cost" style="ellipse;whiteSpace=wrap;html=1;align=center;fillColor=#fad7ac;strokeColor=#b46504;" vertex="1" parent="1">
          <mxGeometry x="656" y="510" width="100" height="40" as="geometry" />
        </mxCell>
        <mxCell id="ZtOpLbJpA6dc47QL9Wgd-3" style="edgeStyle=orthogonalEdgeStyle;rounded=0;orthogonalLoop=1;jettySize=auto;html=1;entryX=0.5;entryY=1;entryDx=0;entryDy=0;endArrow=none;endFill=0;" edge="1" parent="1" source="ZtOpLbJpA6dc47QL9Wgd-2" target="nlzdaKM3ThffbXgHZmzB-24">
          <mxGeometry relative="1" as="geometry" />
        </mxCell>
        <mxCell id="ZtOpLbJpA6dc47QL9Wgd-4" style="edgeStyle=orthogonalEdgeStyle;rounded=0;orthogonalLoop=1;jettySize=auto;html=1;entryX=0.5;entryY=0;entryDx=0;entryDy=0;endArrow=none;endFill=0;" edge="1" parent="1" source="ZtOpLbJpA6dc47QL9Wgd-2" target="nlzdaKM3ThffbXgHZmzB-41">
          <mxGeometry relative="1" as="geometry" />
        </mxCell>
        <mxCell id="ZtOpLbJpA6dc47QL9Wgd-2" value="Assign" style="shape=rhombus;perimeter=rhombusPerimeter;whiteSpace=wrap;html=1;align=center;fillColor=#f5f5f5;strokeColor=#666666;fontColor=#333333;" vertex="1" parent="1">
          <mxGeometry x="536" y="310" width="120" height="60" as="geometry" />
        </mxCell>
      </root>
    </mxGraphModel>
  </diagram>
  <diagram id="mdtm_Bsw7A90HAKQMQdV" name="Page-2">
    <mxGraphModel dx="781" dy="477" grid="1" gridSize="10" guides="1" tooltips="1" connect="1" arrows="1" fold="1" page="1" pageScale="1" pageWidth="827" pageHeight="1169" math="0" shadow="0">
      <root>
        <mxCell id="8yq9Y2w6LEdtWRzxXuwC-0" />
        <mxCell id="8yq9Y2w6LEdtWRzxXuwC-1" parent="8yq9Y2w6LEdtWRzxXuwC-0" />
        <mxCell id="wxWrL94pJXgwpG3CqI69-0" style="edgeStyle=orthogonalEdgeStyle;rounded=0;orthogonalLoop=1;jettySize=auto;html=1;exitX=0.5;exitY=1;exitDx=0;exitDy=0;endArrow=classic;endFill=1;entryX=0.677;entryY=1.033;entryDx=0;entryDy=0;entryPerimeter=0;" edge="1" parent="8yq9Y2w6LEdtWRzxXuwC-1" source="INWDc1ILaUPkveDOMm1b-0" target="fDq_4Qa5iomdrfUwuo8x-1">
          <mxGeometry relative="1" as="geometry">
            <mxPoint x="460" y="120" as="targetPoint" />
            <Array as="points">
              <mxPoint x="130" y="500" />
              <mxPoint x="740" y="500" />
              <mxPoint x="740" y="120" />
              <mxPoint x="148" y="120" />
            </Array>
          </mxGeometry>
        </mxCell>
        <mxCell id="INWDc1ILaUPkveDOMm1b-0" value="&lt;u&gt;cID&lt;/u&gt;" style="whiteSpace=wrap;html=1;align=center;" vertex="1" parent="8yq9Y2w6LEdtWRzxXuwC-1">
          <mxGeometry x="80" y="460" width="100" height="20" as="geometry" />
        </mxCell>
        <mxCell id="wxWrL94pJXgwpG3CqI69-1" style="edgeStyle=orthogonalEdgeStyle;rounded=0;orthogonalLoop=1;jettySize=auto;html=1;exitX=0.5;exitY=1;exitDx=0;exitDy=0;endArrow=classic;endFill=1;entryX=0.5;entryY=1;entryDx=0;entryDy=0;" edge="1" parent="8yq9Y2w6LEdtWRzxXuwC-1" source="BlbVe2aiZcrzY7GftaR2-0" target="cV-cupvnwljmGm8YuqAW-0">
          <mxGeometry relative="1" as="geometry">
            <mxPoint x="760" y="180" as="targetPoint" />
            <Array as="points">
              <mxPoint x="230" y="520" />
              <mxPoint x="760" y="520" />
              <mxPoint x="760" y="180" />
              <mxPoint x="130" y="180" />
            </Array>
          </mxGeometry>
        </mxCell>
        <mxCell id="BlbVe2aiZcrzY7GftaR2-0" value="pID" style="whiteSpace=wrap;html=1;align=center;" vertex="1" parent="8yq9Y2w6LEdtWRzxXuwC-1">
          <mxGeometry x="180" y="460" width="100" height="20" as="geometry" />
        </mxCell>
        <mxCell id="fDq_4Qa5iomdrfUwuo8x-0" value="Buy" style="text;html=1;strokeColor=none;fillColor=none;align=center;verticalAlign=middle;whiteSpace=wrap;rounded=0;" vertex="1" parent="8yq9Y2w6LEdtWRzxXuwC-1">
          <mxGeometry x="80" y="430" width="40" height="20" as="geometry" />
        </mxCell>
        <mxCell id="fDq_4Qa5iomdrfUwuo8x-1" value="&lt;u&gt;cID&lt;/u&gt;" style="whiteSpace=wrap;html=1;align=center;" vertex="1" parent="8yq9Y2w6LEdtWRzxXuwC-1">
          <mxGeometry x="80" y="60" width="100" height="20" as="geometry" />
        </mxCell>
        <mxCell id="fDq_4Qa5iomdrfUwuo8x-4" value="cName" style="whiteSpace=wrap;html=1;align=center;" vertex="1" parent="8yq9Y2w6LEdtWRzxXuwC-1">
          <mxGeometry x="180" y="60" width="100" height="20" as="geometry" />
        </mxCell>
        <mxCell id="fDq_4Qa5iomdrfUwuo8x-5" value="Address" style="whiteSpace=wrap;html=1;align=center;" vertex="1" parent="8yq9Y2w6LEdtWRzxXuwC-1">
          <mxGeometry x="280" y="60" width="100" height="20" as="geometry" />
        </mxCell>
        <mxCell id="L6EWCqG4uDUrCI7NfcOk-0" style="edgeStyle=orthogonalEdgeStyle;rounded=0;orthogonalLoop=1;jettySize=auto;html=1;exitX=0.5;exitY=1;exitDx=0;exitDy=0;endArrow=classic;endFill=1;entryX=0.5;entryY=1;entryDx=0;entryDy=0;" edge="1" parent="8yq9Y2w6LEdtWRzxXuwC-1" source="WKxJ4KHsA_G8X9rTeL6k-0" target="fDq_4Qa5iomdrfUwuo8x-1">
          <mxGeometry relative="1" as="geometry">
            <mxPoint x="130" y="100" as="targetPoint" />
            <Array as="points">
              <mxPoint x="430" y="340" />
              <mxPoint x="700" y="340" />
              <mxPoint x="700" y="100" />
              <mxPoint x="130" y="100" />
            </Array>
          </mxGeometry>
        </mxCell>
        <mxCell id="WKxJ4KHsA_G8X9rTeL6k-0" value="cID" style="whiteSpace=wrap;html=1;align=center;" vertex="1" parent="8yq9Y2w6LEdtWRzxXuwC-1">
          <mxGeometry x="380" y="300" width="100" height="20" as="geometry" />
        </mxCell>
        <mxCell id="WKxJ4KHsA_G8X9rTeL6k-1" value="Customer" style="text;html=1;strokeColor=none;fillColor=none;align=center;verticalAlign=middle;whiteSpace=wrap;rounded=0;" vertex="1" parent="8yq9Y2w6LEdtWRzxXuwC-1">
          <mxGeometry x="80" y="30" width="40" height="20" as="geometry" />
        </mxCell>
        <mxCell id="cV-cupvnwljmGm8YuqAW-0" value="&lt;u&gt;pID&lt;/u&gt;" style="whiteSpace=wrap;html=1;align=center;" vertex="1" parent="8yq9Y2w6LEdtWRzxXuwC-1">
          <mxGeometry x="80" y="140" width="100" height="20" as="geometry" />
        </mxCell>
        <mxCell id="cV-cupvnwljmGm8YuqAW-1" value="pName" style="whiteSpace=wrap;html=1;align=center;" vertex="1" parent="8yq9Y2w6LEdtWRzxXuwC-1">
          <mxGeometry x="180" y="140" width="100" height="20" as="geometry" />
        </mxCell>
        <mxCell id="cV-cupvnwljmGm8YuqAW-2" value="pType" style="whiteSpace=wrap;html=1;align=center;" vertex="1" parent="8yq9Y2w6LEdtWRzxXuwC-1">
          <mxGeometry x="280" y="140" width="100" height="20" as="geometry" />
        </mxCell>
        <mxCell id="cV-cupvnwljmGm8YuqAW-4" value="Product" style="text;html=1;strokeColor=none;fillColor=none;align=center;verticalAlign=middle;whiteSpace=wrap;rounded=0;" vertex="1" parent="8yq9Y2w6LEdtWRzxXuwC-1">
          <mxGeometry x="80" y="110" width="40" height="20" as="geometry" />
        </mxCell>
        <mxCell id="igS87dLgYz082vtcmUaZ-0" value="&lt;u&gt;TIN&lt;/u&gt;" style="whiteSpace=wrap;html=1;align=center;" vertex="1" parent="8yq9Y2w6LEdtWRzxXuwC-1">
          <mxGeometry x="180" y="220" width="100" height="20" as="geometry" />
        </mxCell>
        <mxCell id="igS87dLgYz082vtcmUaZ-2" value="companyName" style="whiteSpace=wrap;html=1;align=center;" vertex="1" parent="8yq9Y2w6LEdtWRzxXuwC-1">
          <mxGeometry x="380" y="140" width="100" height="20" as="geometry" />
        </mxCell>
        <mxCell id="igS87dLgYz082vtcmUaZ-3" value="Company" style="text;html=1;strokeColor=none;fillColor=none;align=center;verticalAlign=middle;whiteSpace=wrap;rounded=0;" vertex="1" parent="8yq9Y2w6LEdtWRzxXuwC-1">
          <mxGeometry x="80" y="190" width="40" height="20" as="geometry" />
        </mxCell>
        <mxCell id="fr7SfigKcuucexturxWp-0" value="&lt;u&gt;invoiceID&lt;/u&gt;" style="whiteSpace=wrap;html=1;align=center;" vertex="1" parent="8yq9Y2w6LEdtWRzxXuwC-1">
          <mxGeometry x="80" y="300" width="100" height="20" as="geometry" />
        </mxCell>
        <mxCell id="fr7SfigKcuucexturxWp-1" value="Cost" style="whiteSpace=wrap;html=1;align=center;" vertex="1" parent="8yq9Y2w6LEdtWRzxXuwC-1">
          <mxGeometry x="180" y="300" width="100" height="20" as="geometry" />
        </mxCell>
        <mxCell id="fr7SfigKcuucexturxWp-2" value="Invoice" style="text;html=1;strokeColor=none;fillColor=none;align=center;verticalAlign=middle;whiteSpace=wrap;rounded=0;" vertex="1" parent="8yq9Y2w6LEdtWRzxXuwC-1">
          <mxGeometry x="80" y="270" width="40" height="20" as="geometry" />
        </mxCell>
        <mxCell id="MCY-6WnS_JuKbTD83AyW-0" value="Date" style="whiteSpace=wrap;html=1;align=center;" vertex="1" parent="8yq9Y2w6LEdtWRzxXuwC-1">
          <mxGeometry x="280" y="300" width="100" height="20" as="geometry" />
        </mxCell>
        <mxCell id="LACrDlLpjC2J4zvX-9WW-0" style="edgeStyle=orthogonalEdgeStyle;rounded=0;orthogonalLoop=1;jettySize=auto;html=1;exitX=0.5;exitY=1;exitDx=0;exitDy=0;endArrow=classic;endFill=1;entryX=0.5;entryY=1;entryDx=0;entryDy=0;" edge="1" parent="8yq9Y2w6LEdtWRzxXuwC-1" source="bCExyUg6NHKbk7PDazgy-0" target="igS87dLgYz082vtcmUaZ-2">
          <mxGeometry relative="1" as="geometry">
            <mxPoint x="430" y="230" as="targetPoint" />
            <Array as="points">
              <mxPoint x="130" y="260" />
              <mxPoint x="430" y="260" />
            </Array>
          </mxGeometry>
        </mxCell>
        <mxCell id="bCExyUg6NHKbk7PDazgy-0" value="companyName" style="whiteSpace=wrap;html=1;align=center;" vertex="1" parent="8yq9Y2w6LEdtWRzxXuwC-1">
          <mxGeometry x="80" y="220" width="100" height="20" as="geometry" />
        </mxCell>
        <mxCell id="noBWLpsBuMg3KxIWEyRq-2" style="edgeStyle=orthogonalEdgeStyle;rounded=0;orthogonalLoop=1;jettySize=auto;html=1;exitX=0.5;exitY=1;exitDx=0;exitDy=0;endArrow=classic;endFill=1;entryX=0.5;entryY=1;entryDx=0;entryDy=0;" edge="1" parent="8yq9Y2w6LEdtWRzxXuwC-1" source="bCExyUg6NHKbk7PDazgy-1" target="noBWLpsBuMg3KxIWEyRq-0">
          <mxGeometry relative="1" as="geometry">
            <mxPoint x="630" y="480" as="targetPoint" />
            <Array as="points">
              <mxPoint x="130" y="420" />
              <mxPoint x="630" y="420" />
            </Array>
          </mxGeometry>
        </mxCell>
        <mxCell id="bCExyUg6NHKbk7PDazgy-1" value="&lt;u&gt;jID&lt;/u&gt;" style="whiteSpace=wrap;html=1;align=center;" vertex="1" parent="8yq9Y2w6LEdtWRzxXuwC-1">
          <mxGeometry x="80" y="380" width="100" height="20" as="geometry" />
        </mxCell>
        <mxCell id="bCExyUg6NHKbk7PDazgy-2" value="jName" style="whiteSpace=wrap;html=1;align=center;" vertex="1" parent="8yq9Y2w6LEdtWRzxXuwC-1">
          <mxGeometry x="180" y="380" width="100" height="20" as="geometry" />
        </mxCell>
        <mxCell id="bCExyUg6NHKbk7PDazgy-3" value="Journal" style="text;html=1;strokeColor=none;fillColor=none;align=center;verticalAlign=middle;whiteSpace=wrap;rounded=0;" vertex="1" parent="8yq9Y2w6LEdtWRzxXuwC-1">
          <mxGeometry x="80" y="350" width="40" height="20" as="geometry" />
        </mxCell>
        <mxCell id="bCExyUg6NHKbk7PDazgy-4" value="jType" style="whiteSpace=wrap;html=1;align=center;" vertex="1" parent="8yq9Y2w6LEdtWRzxXuwC-1">
          <mxGeometry x="280" y="380" width="100" height="20" as="geometry" />
        </mxCell>
        <mxCell id="BupM6lUJI06KBX5XOiRa-2" style="edgeStyle=orthogonalEdgeStyle;rounded=0;orthogonalLoop=1;jettySize=auto;html=1;exitX=0.5;exitY=1;exitDx=0;exitDy=0;endArrow=classic;endFill=1;entryX=0.5;entryY=1;entryDx=0;entryDy=0;" edge="1" parent="8yq9Y2w6LEdtWRzxXuwC-1" source="BupM6lUJI06KBX5XOiRa-1" target="igS87dLgYz082vtcmUaZ-0">
          <mxGeometry relative="1" as="geometry">
            <mxPoint x="220" y="260" as="targetPoint" />
            <Array as="points">
              <mxPoint x="530" y="360" />
              <mxPoint x="720" y="360" />
              <mxPoint x="720" y="280" />
              <mxPoint x="230" y="280" />
            </Array>
          </mxGeometry>
        </mxCell>
        <mxCell id="BupM6lUJI06KBX5XOiRa-1" value="TIN" style="whiteSpace=wrap;html=1;align=center;" vertex="1" parent="8yq9Y2w6LEdtWRzxXuwC-1">
          <mxGeometry x="480" y="300" width="100" height="20" as="geometry" />
        </mxCell>
        <mxCell id="noBWLpsBuMg3KxIWEyRq-0" value="jID" style="whiteSpace=wrap;html=1;align=center;" vertex="1" parent="8yq9Y2w6LEdtWRzxXuwC-1">
          <mxGeometry x="580" y="300" width="100" height="20" as="geometry" />
        </mxCell>
      </root>
    </mxGraphModel>
  </diagram>
</mxfile>
